<?xml version="1.0" encoding="UTF-8"?>
<svg version="1.1" xmlns="http://www.w3.org/2000/svg" width="225" height="225">
<path d="M0 0 C74.25 0 148.5 0 225 0 C225 74.25 225 148.5 225 225 C150.75 225 76.5 225 0 225 C0 150.75 0 76.5 0 0 Z " fill="#FEFEFE" transform="translate(0,0)"/>
<path d="M0 0 C5.01399822 1.34817475 8.62586866 3.67008867 12.625 6.875 C13.18445313 7.30941406 13.74390625 7.74382813 14.3203125 8.19140625 C17.41420971 10.62128307 20.2854957 13.15308086 23 16 C21.35 16.99 19.7 17.98 18 19 C29.75678227 57.12047585 55.85882251 93.48320583 84.25 121.1875 C87 124 87 124 87 126 C87.56203125 126.23203125 88.1240625 126.4640625 88.703125 126.703125 C91.58070409 128.32788054 93.47330821 130.35729844 95.75 132.75 C99.88932876 136.98759176 104.12199362 140.64807383 109 144 C107.74698413 147.75904761 106.70792716 148.01080587 103.25 149.75 C102.38890625 150.19859375 101.5278125 150.6471875 100.640625 151.109375 C97.39124006 152.2053214 96.2055651 152.2402484 93 151 C90.41724008 149.1800162 88.0928122 147.11602158 85.75 145 C85.0912085 144.41710205 84.43241699 143.8342041 83.75366211 143.23364258 C78.63738451 138.67044217 73.76419095 133.93135555 69 129 C68.67 135.93 68.34 142.86 68 150 C71.465 148.02 71.465 148.02 75 146 C80 146 80 146 94 154 C94 168.85 94 183.7 94 199 C79.28858579 207.02440775 79.28858579 207.02440775 76.64453125 206.80078125 C71.15630326 205.13891014 66.22763162 202.92991108 62 199 C60.96497304 194.82868532 61.25408766 191.2061168 62 187 C61.39671875 187.37253906 60.7934375 187.74507812 60.171875 188.12890625 C59.37265625 188.60199219 58.5734375 189.07507813 57.75 189.5625 C56.96109375 190.03816406 56.1721875 190.51382813 55.359375 191.00390625 C53 192 53 192 51.125 191.875 C48.04941063 190.60858085 45.15397795 189.0490482 42.25 187.4375 C41.64800781 187.10814453 41.04601562 186.77878906 40.42578125 186.43945312 C38.94829497 185.6303535 37.47383964 184.81572338 36 184 C36 180.04 36 176.08 36 172 C34.783125 172.845625 33.56625 173.69125 32.3125 174.5625 C29.87245633 176.25812357 28.65166109 177.03801356 25.65625 176.86328125 C19.77813118 174.95289263 14.55588808 172.15004748 10 168 C8.89884404 164.11536647 9.15693443 160.91989463 10 157 C9.39671875 157.37253906 8.7934375 157.74507812 8.171875 158.12890625 C6.97304687 158.83853516 6.97304687 158.83853516 5.75 159.5625 C4.96109375 160.03816406 4.1721875 160.51382813 3.359375 161.00390625 C1 162 1 162 -3 161 C-7.62 158.36 -12.24 155.72 -17 153 C-17 111.75 -17 70.5 -17 28 C-13.37 26.02 -9.74 24.04 -6 22 C-4.17262449 17.86672185 -3.14796745 14.92724103 -2.3125 10.625 C-2.07595703 9.60277344 -1.83941406 8.58054687 -1.59570312 7.52734375 C-1.02257761 5.0243058 -0.49265941 2.51988414 0 0 Z " fill="#FE9001" transform="translate(66,9)"/>
<path d="M0 0 C5.01399822 1.34817475 8.62586866 3.67008867 12.625 6.875 C13.18445313 7.30941406 13.74390625 7.74382813 14.3203125 8.19140625 C17.41420971 10.62128307 20.2854957 13.15308086 23 16 C21.35 16.99 19.7 17.98 18 19 C29.75678227 57.12047585 55.85882251 93.48320583 84.25 121.1875 C87 124 87 124 87 126 C87.56203125 126.23203125 88.1240625 126.4640625 88.703125 126.703125 C91.58070409 128.32788054 93.47330821 130.35729844 95.75 132.75 C99.88932876 136.98759176 104.12199362 140.64807383 109 144 C107.74698413 147.75904761 106.70792716 148.01080587 103.25 149.75 C102.38890625 150.19859375 101.5278125 150.6471875 100.640625 151.109375 C97.39124006 152.2053214 96.2055651 152.2402484 93 151 C90.41724008 149.1800162 88.0928122 147.11602158 85.75 145 C85.0912085 144.41710205 84.43241699 143.8342041 83.75366211 143.23364258 C78.63738451 138.67044217 73.76419095 133.93135555 69 129 C68.67 135.93 68.34 142.86 68 150 C71.465 148.02 71.465 148.02 75 146 C80 146 80 146 94 154 C94 168.85 94 183.7 94 199 C93.67 199 93.34 199 93 199 C92.67 184.81 92.34 170.62 92 156 C88.04 158.31 84.08 160.62 80 163 C74.68929168 163 72.40403521 161.78281922 68.1875 159 C67.59001953 158.6184375 66.99253906 158.236875 66.37695312 157.84375 C64.9115022 156.90586141 63.4548365 155.9542705 62 155 C62.64686768 154.45577393 63.29373535 153.91154785 63.96020508 153.35083008 C67.60591065 149.1492144 66.69665494 144.02483094 66.6875 138.6875 C66.72810547 137.57181641 66.76871094 136.45613281 66.81054688 135.30664062 C66.89077829 129.1299512 66.89077829 129.1299512 64.39306641 123.64697266 C62.67655318 121.9269961 60.97000498 120.418544 59 119 C58.236875 119.309375 57.47375 119.61875 56.6875 119.9375 C51.22960932 122.09527073 51.22960932 122.09527073 49.2824707 121.28735352 C48.66976318 120.90506592 48.05705566 120.52277832 47.42578125 120.12890625 C46.75869141 119.71962891 46.09160156 119.31035156 45.40429688 118.88867188 C44.71400391 118.45103516 44.02371094 118.01339844 43.3125 117.5625 C42.61060547 117.12873047 41.90871094 116.69496094 41.18554688 116.24804688 C39.45134628 115.17449413 37.72491256 114.08841346 36 113 C37.28965176 111.62437146 38.62689293 110.29233607 40 109 C40.66 109 41.32 109 42 109 C42.91382669 100.86342776 39.8850677 95.44462047 35.375 89 C34.86614258 88.2582251 34.35728516 87.5164502 33.83300781 86.75219727 C30.39287869 82.05998609 27.62177575 79.94137813 22 78 C20.00668664 76.96428345 18.02614736 75.9034152 16.0625 74.8125 C15.10472656 74.28269531 14.14695312 73.75289063 13.16015625 73.20703125 C12.44730469 72.80871094 11.73445313 72.41039063 11 72 C11.495 70.515 11.495 70.515 12 69 C12.99 68.505 12.99 68.505 14 68 C15.52992061 57.1394525 12.33832049 50.62964869 6.96875 41.45703125 C5 38 5 38 5 36 C3.9275 36.309375 2.855 36.61875 1.75 36.9375 C-3 37 -3 37 -15 30 C-15.33 70.59 -15.66 111.18 -16 153 C-16.33 153 -16.66 153 -17 153 C-17 111.75 -17 70.5 -17 28 C-13.37 26.02 -9.74 24.04 -6 22 C-4.17262449 17.86672185 -3.14796745 14.92724103 -2.3125 10.625 C-2.07595703 9.60277344 -1.83941406 8.58054687 -1.59570312 7.52734375 C-1.02257761 5.0243058 -0.49265941 2.51988414 0 0 Z " fill="#FDBB07" transform="translate(66,9)"/>
<path d="M0 0 C0.680625 0.515625 1.36125 1.03125 2.0625 1.5625 C3.08214844 2.32304687 4.10179687 3.08359375 5.15234375 3.8671875 C8.95690129 7.71231153 8.79127973 11.62818406 8.78515625 16.83007812 C8.75292969 17.95865234 8.72070312 19.08722656 8.6875 20.25 C8.69394531 21.39017578 8.70039063 22.53035156 8.70703125 23.70507812 C8.62578122 29.95763729 8.62578122 29.95763729 8.0625 32.5625 C6.02490234 34.40942383 6.02490234 34.40942383 4.0625 35.5625 C4.67738281 35.97242188 5.29226562 36.38234375 5.92578125 36.8046875 C10.99414062 40.18359375 10.99414062 40.18359375 16.0625 43.5625 C22.10738862 43.5625 26.00763239 41.05996032 31.0234375 37.83984375 C33.0625 36.5625 33.0625 36.5625 34.0625 36.5625 C34.0625 51.0825 34.0625 65.6025 34.0625 80.5625 C20.0625 88.5625 20.0625 88.5625 15.0625 87.5625 C10.54536078 85.81118755 6.62749683 83.87644072 3.0625 80.5625 C2.02747304 76.39118532 2.31658766 72.7686168 3.0625 68.5625 C-0.2375 70.2125 -3.5375 71.8625 -6.9375 73.5625 C-7.05327218 64.35716797 -7.14215277 55.1520859 -7.19656086 45.94618511 C-7.22267222 41.67162581 -7.25809721 37.39756397 -7.31469727 33.12329102 C-7.3689639 28.9994956 -7.39890894 24.87617908 -7.41188622 20.75205421 C-7.42113589 19.17749298 -7.43919858 17.60295842 -7.46615028 16.02860069 C-7.50237284 13.8253727 -7.50744869 11.6241314 -7.50512695 9.4206543 C-7.51623001 8.16600876 -7.52733307 6.91136322 -7.53877258 5.61869812 C-6.9375 2.5625 -6.9375 2.5625 -4.52311707 0.60652161 C-1.9375 -0.4375 -1.9375 -0.4375 0 0 Z " fill="#FD9001" transform="translate(124.9375,127.4375)"/>
<path d="M0 0 C4.29 2.31 8.58 4.62 13 7 C14.32 7.66 15.64 8.32 17 9 C16.34 9 15.68 9 15 9 C15 49.92 15 90.84 15 133 C10.05 130.36 5.1 127.72 0 125 C0 83.75 0 42.5 0 0 Z " fill="#FE9000" transform="translate(50,38)"/>
<path d="M0 0 C11.93884031 20.00073274 11.93884031 20.00073274 10 32 C8.35 32.66 6.7 33.32 5 34 C5.0199855 35.06409088 5.03997101 36.12818176 5.06056213 37.22451782 C5.24310673 47.2587461 5.37796635 57.29263711 5.46630955 67.3281498 C5.51325639 72.4875375 5.57691451 77.64558369 5.67895508 82.80419922 C5.7768399 87.78396116 5.83057649 92.76243417 5.85389519 97.74308395 C5.870509 99.64185254 5.90295487 101.54055148 5.95157051 103.43877029 C6.31766926 118.32715539 6.31766926 118.32715539 3.00680542 122.53045654 C0.08349257 124.54825889 -2.39761969 126 -6 126 C-6.07001349 109.86697108 -6.12295047 93.73399127 -6.15543652 77.60084724 C-6.17091981 70.11031142 -6.19203708 62.61986986 -6.22631836 55.12939453 C-6.25617617 48.60235021 -6.27556436 42.07537414 -6.28226548 35.54826343 C-6.28618394 32.09067455 -6.29542275 28.63328097 -6.31719017 25.17575455 C-6.34126623 21.32041961 -6.34197233 17.46527751 -6.34057617 13.60986328 C-6.351362 12.45756226 -6.36214783 11.30526123 -6.3732605 10.11804199 C-6.36913651 9.07193756 -6.36501251 8.02583313 -6.36076355 6.94802856 C-6.36352893 6.03545351 -6.36629431 5.12287846 -6.36914349 4.18264961 C-6.24732614 3.46237524 -6.12550879 2.74210087 -6 2 C-3 0 -3 0 0 0 Z " fill="#FA6001" transform="translate(71,45)"/>
<path d="M0 0 C12.02859709 4.81143883 12.02859709 4.81143883 16 9 C17.54044514 14.33109434 17.28657776 19.51502582 17.07421875 24.99609375 C17.05367913 26.55545037 17.03803198 28.11487842 17.02705383 29.67433167 C16.98522696 33.76157717 16.87735724 37.84446077 16.75531006 41.92999268 C16.64238656 46.10572286 16.59246169 50.28216455 16.53710938 54.45898438 C16.4194481 62.64131582 16.23195143 70.8201141 16 79 C10.46363468 76.78545387 5.23475781 73.85532244 0 71 C0 47.57 0 24.14 0 0 Z " fill="#FE9001" transform="translate(102,122)"/>
<path d="M0 0 C0.66 0 1.32 0 2 0 C2.4846875 1.11375 2.969375 2.2275 3.46875 3.375 C16.91936074 34.096955 33.41279719 62.02530549 56 87 C56.58346191 87.64517578 57.16692383 88.29035156 57.76806641 88.95507812 C59.60761681 90.97814547 61.45709933 92.99146456 63.3125 95 C63.87517578 95.61133789 64.43785156 96.22267578 65.01757812 96.85253906 C68.37675376 100.44317733 71.85951795 103.66911617 75.70385742 106.73828125 C76.13158447 107.15464844 76.55931152 107.57101563 77 108 C77 108.66 77 109.32 77 110 C77.55816406 110.24105469 78.11632812 110.48210937 78.69140625 110.73046875 C81.48892209 112.26886579 83.58486915 114.15561964 85.9375 116.3125 C86.81019531 117.11171875 87.68289062 117.9109375 88.58203125 118.734375 C91.11347266 121.10632333 93.58785101 123.50744604 96 126 C90.57562887 125.66874069 87.59369892 122.47161838 83.75 119 C83.0912085 118.41710205 82.43241699 117.8342041 81.75366211 117.23364258 C76.63738451 112.67044217 71.76419095 107.93135555 67 103 C66.67 109.93 66.34 116.86 66 124 C68.31 122.68 70.62 121.36 73 120 C78 120 78 120 92 128 C92 142.85 92 157.7 92 173 C91.67 173 91.34 173 91 173 C90.67 158.81 90.34 144.62 90 130 C86.04 132.31 82.08 134.62 78 137 C72.68929168 137 70.40403521 135.78281922 66.1875 133 C65.59001953 132.6184375 64.99253906 132.236875 64.37695312 131.84375 C62.9115022 130.90586141 61.4548365 129.9542705 60 129 C60.64686768 128.45577393 61.29373535 127.91154785 61.96020508 127.35083008 C65.60591065 123.1492144 64.69665494 118.02483094 64.6875 112.6875 C64.7484082 111.01397461 64.7484082 111.01397461 64.81054688 109.30664062 C64.89077829 103.1299512 64.89077829 103.1299512 62.39306641 97.64697266 C60.67655318 95.9269961 58.97000498 94.418544 57 93 C55.8553125 93.4640625 55.8553125 93.4640625 54.6875 93.9375 C49.22960932 96.09527073 49.22960932 96.09527073 47.2824707 95.28735352 C46.66976318 94.90506592 46.05705566 94.52277832 45.42578125 94.12890625 C44.75869141 93.71962891 44.09160156 93.31035156 43.40429688 92.88867188 C42.71400391 92.45103516 42.02371094 92.01339844 41.3125 91.5625 C40.61060547 91.12873047 39.90871094 90.69496094 39.18554688 90.24804688 C37.45134628 89.17449413 35.72491256 88.08841346 34 87 C35.28965176 85.62437146 36.62689293 84.29233607 38 83 C38.66 83 39.32 83 40 83 C40.91382669 74.86342776 37.8850677 69.44462047 33.375 63 C32.86614258 62.2582251 32.35728516 61.5164502 31.83300781 60.75219727 C28.39287869 56.05998609 25.62177575 53.94137813 20 52 C18.00668664 50.96428345 16.02614736 49.9034152 14.0625 48.8125 C13.10472656 48.28269531 12.14695312 47.75289062 11.16015625 47.20703125 C10.44730469 46.80871094 9.73445313 46.41039062 9 46 C9.33 45.01 9.66 44.02 10 43 C10.99 42.505 10.99 42.505 12 42 C13.7988435 30.86715743 9.92410444 23.96517401 4.48046875 14.578125 C1.99112036 10.22809894 0.3853357 5.80478102 -1 1 C-0.67 0.67 -0.34 0.34 0 0 Z " fill="#FA9103" transform="translate(68,35)"/>
<path d="M0 0 C5.04731003 1.26182751 6.37492644 3.78661171 9.125 7.875 C9.56714844 8.51308594 10.00929688 9.15117188 10.46484375 9.80859375 C16.31820685 18.27917057 16.31820685 18.27917057 16.4375 23.5 C16.47746094 24.4590625 16.51742187 25.418125 16.55859375 26.40625 C16.37425781 27.2621875 16.18992187 28.118125 16 29 C15.17446121 29.42950958 14.34892242 29.85901917 13.49836731 30.30154419 C10.74239711 31.75892432 10.74239711 31.75892432 10.41459656 34.60494995 C10.43206436 35.64910065 10.44953217 36.69325134 10.4675293 37.76904297 C10.47370773 38.95392303 10.47988617 40.1388031 10.48625183 41.35958862 C10.51528091 42.64084625 10.54431 43.92210388 10.57421875 45.2421875 C10.58010417 47.25232254 10.58594371 49.26245895 10.58907032 51.27260017 C10.60492637 56.23312357 10.67556643 61.19299562 10.75610352 66.15283203 C10.79940845 68.93538586 10.8213328 71.71665454 10.82124329 74.49954224 C10.82319673 77.12078695 10.85857479 79.74226226 10.93058777 82.36251831 C10.90681481 91.00119539 10.90681481 91.00119539 8.23379517 93.94537354 C5.52132024 95.70178238 3.27164919 97 0 97 C0 64.99 0 32.98 0 0 Z " fill="#FA6001" transform="translate(92,89)"/>
<path d="M0 0 C0.680625 0.515625 1.36125 1.03125 2.0625 1.5625 C3.08214844 2.32304687 4.10179687 3.08359375 5.15234375 3.8671875 C8.95690129 7.71231153 8.79127973 11.62818406 8.78515625 16.83007812 C8.75292969 17.95865234 8.72070312 19.08722656 8.6875 20.25 C8.69394531 21.39017578 8.70039063 22.53035156 8.70703125 23.70507812 C8.62578122 29.95763729 8.62578122 29.95763729 8.0625 32.5625 C7.40266113 33.01705566 6.74282227 33.47161133 6.06298828 33.93994141 C3.6892585 35.49713613 3.6892585 35.49713613 3.51660156 38.93237305 C3.47539546 40.31253542 3.45552674 41.69344348 3.453125 43.07421875 C3.43658875 43.80244339 3.42005249 44.53066803 3.40301514 45.28096008 C3.35447803 47.60405865 3.33315331 49.9265025 3.3125 52.25 C3.28434482 53.82620492 3.25441801 55.40237926 3.22265625 56.97851562 C3.14871856 60.83978983 3.09917968 64.70069939 3.0625 68.5625 C-0.2375 70.2125 -3.5375 71.8625 -6.9375 73.5625 C-7.05327218 64.35716797 -7.14215277 55.1520859 -7.19656086 45.94618511 C-7.22267222 41.67162581 -7.25809721 37.39756397 -7.31469727 33.12329102 C-7.3689639 28.9994956 -7.39890894 24.87617908 -7.41188622 20.75205421 C-7.42113589 19.17749298 -7.43919858 17.60295842 -7.46615028 16.02860069 C-7.50237284 13.8253727 -7.50744869 11.6241314 -7.50512695 9.4206543 C-7.51623001 8.16600876 -7.52733307 6.91136322 -7.53877258 5.61869812 C-6.9375 2.5625 -6.9375 2.5625 -4.52311707 0.60652161 C-1.9375 -0.4375 -1.9375 -0.4375 0 0 Z " fill="#FA5E01" transform="translate(124.9375,127.4375)"/>
<path d="M0 0 C0 14.52 0 29.04 0 44 C-14 52 -14 52 -15 52 C-15.24801107 46.00461865 -15.42901269 40.01224498 -15.54931641 34.01293945 C-15.59947674 31.97464986 -15.66762754 29.93671785 -15.75439453 27.8996582 C-16.45765927 10.95925178 -16.45765927 10.95925178 -12.87011719 6.13720703 C-10.28328182 4.3051424 -7.96064176 3.10649391 -5 2 C-4.25314941 1.62351318 -3.50629883 1.24702637 -2.73681641 0.85913086 C-1 0 -1 0 0 0 Z " fill="#FA5D01" transform="translate(159,164)"/>
<path d="M0 0 C6.93 3.96 6.93 3.96 14 8 C14 22.85 14 37.7 14 53 C13.67 53 13.34 53 13 53 C12.67 38.81 12.34 24.62 12 10 C6.06 13.465 6.06 13.465 0 17 C-5.31070832 17 -7.59596479 15.78281922 -11.8125 13 C-12.40998047 12.6184375 -13.00746094 12.236875 -13.62304688 11.84375 C-15.0884978 10.90586141 -16.5451635 9.9542705 -18 9 C-15.38196949 6.22168191 -12.89120822 4.11915331 -9.5625 2.25 C-8.82128906 1.82203125 -8.08007812 1.3940625 -7.31640625 0.953125 C-5 0 -5 0 0 0 Z " fill="#FBB711" transform="translate(146,155)"/>
<path d="M0 0 C7 6 7 6 10.125 9.25 C15.21064945 14.45256093 21.18674883 18.65535965 27 23 C25.33203125 24.18359375 25.33203125 24.18359375 23 25 C20.44921875 23.84765625 20.44921875 23.84765625 17.6875 22.0625 C13.23737505 19.45187694 13.23737505 19.45187694 8.125 19 C5.37530193 19.87990338 2.68056052 20.92777579 0 22 C0 14.74 0 7.48 0 0 Z " fill="#FCFCF5" transform="translate(134,137)"/>
<path d="M0 0 C3.85955925 3.74666538 7.36619254 7.68521322 10.8125 11.8125 C11.56563477 12.7087207 11.56563477 12.7087207 12.33398438 13.62304688 C13.55806732 15.08028848 14.77932962 16.53989865 16 18 C13.63707344 20.52588702 12.33537489 21.88820837 9 23 C7.2824707 22.28735352 7.2824707 22.28735352 5.42578125 21.12890625 C4.75869141 20.71962891 4.09160156 20.31035156 3.40429688 19.88867188 C2.71400391 19.45103516 2.02371094 19.01339844 1.3125 18.5625 C0.2596582 17.9118457 0.2596582 17.9118457 -0.81445312 17.24804688 C-2.54865372 16.17449413 -4.27508744 15.08841346 -6 14 C-4.71034824 12.62437146 -3.37310707 11.29233607 -2 10 C-1.34 10 -0.68 10 0 10 C0 6.7 0 3.4 0 0 Z " fill="#FDBB02" transform="translate(108,108)"/>
<path d="M0 0 C0.66 0 1.32 0 2 0 C2.4846875 1.11375 2.969375 2.2275 3.46875 3.375 C10.69733463 19.88263767 18.68117061 35.57046281 28 51 C27.34 51.66 26.68 52.32 26 53 C21.35526389 46.35118994 17.21543416 39.80264902 13.70703125 32.4765625 C12.35741417 29.72791445 10.96146508 27.03165273 9.51171875 24.3359375 C9.06747559 23.50779541 8.62323242 22.67965332 8.16552734 21.82641602 C7.28688966 20.19391291 6.40337264 18.56402312 5.51416016 16.93725586 C2.74376424 11.76436479 0.66939349 6.62573054 -1 1 C-0.67 0.67 -0.34 0.34 0 0 Z " fill="#FA9402" transform="translate(68,35)"/>
<path d="M0 0 C3.21020585 2.74729216 5.03822074 6.29830407 7.0625 9.9375 C7.41376953 10.55818359 7.76503906 11.17886719 8.12695312 11.81835938 C9.83026187 14.8418129 11.48874126 17.87568789 13 21 C8.5089473 21 6.01849388 19.64514267 2.25 17.5 C1.64800781 17.16613281 1.04601562 16.83226563 0.42578125 16.48828125 C-1.05367476 15.66636124 -2.52742068 14.83417788 -4 14 C-3.67 13.01 -3.34 12.02 -3 11 C-2.34 10.67 -1.68 10.34 -1 10 C-0.53248212 7.64400765 -0.53248212 7.64400765 -0.375 4.9375 C-0.30023438 4.01839844 -0.22546875 3.09929687 -0.1484375 2.15234375 C-0.09945312 1.44207031 -0.05046875 0.73179688 0 0 Z " fill="#FDBA04" transform="translate(81,67)"/>
<path d="M0 0 C2.475 0.99 2.475 0.99 5 2 C4.82984375 2.62003906 4.6596875 3.24007813 4.484375 3.87890625 C2.28671631 11.90971221 0.13922246 19.95348304 -2 28 C-3.32 27.67 -4.64 27.34 -6 27 C-5.37547911 20.79786153 -4.0842258 15.00570586 -2.4375 9 C-2.20353516 8.12988281 -1.96957031 7.25976562 -1.72851562 6.36328125 C-1.15709256 4.24085272 -0.58085043 2.11986406 0 0 Z " fill="#FB940A" transform="translate(66,9)"/>
<path d="M0 0 C3.34291179 1.67145589 5.49328776 3.0904293 8.25 5.5 C8.95640625 6.1084375 9.6628125 6.716875 10.390625 7.34375 C12 9 12 9 12 11 C12.55816406 11.24105469 13.11632812 11.48210937 13.69140625 11.73046875 C16.48892209 13.26886579 18.58486915 15.15561964 20.9375 17.3125 C21.81019531 18.11171875 22.68289062 18.9109375 23.58203125 19.734375 C26.11347266 22.10632333 28.58785101 24.50744604 31 27 C25.57562887 26.66874069 22.59369892 23.47161838 18.75 20 C18.0912085 19.41710205 17.43241699 18.8342041 16.75366211 18.23364258 C11.63738451 13.67044217 6.76419095 8.93135555 2 4 C2 11.26 2 18.52 2 26 C1.34 26 0.68 26 0 26 C0 17.42 0 8.84 0 0 Z " fill="#F59935" transform="translate(133,134)"/>
<path d="M0 0 C3.56917061 1.5414201 6.08217769 3.69475459 8.9375 6.3125 C10.24654297 7.51132813 10.24654297 7.51132813 11.58203125 8.734375 C14.11347266 11.10632333 16.58785101 13.50744604 19 16 C13.61323478 15.64980876 10.56048169 12.53130934 6.6875 9.125 C6.04232422 8.58230469 5.39714844 8.03960937 4.73242188 7.48046875 C1.21064816 4.43199161 1.21064816 4.43199161 0 3 C0 2.01 0 1.02 0 0 Z " fill="#F69A18" transform="translate(145,145)"/>
<path d="M0 0 C3.2826932 1.49076434 5.93077441 3.38620321 8.75 5.625 C9.94882813 6.57246094 9.94882813 6.57246094 11.171875 7.5390625 C11.77515625 8.02117187 12.3784375 8.50328125 13 9 C11.328125 10.1484375 11.328125 10.1484375 9 11 C6.421875 10.1015625 6.421875 10.1015625 3.75 8.625 C2.41195312 7.90183594 2.41195312 7.90183594 1.046875 7.1640625 C0.37140625 6.77992188 -0.3040625 6.39578125 -1 6 C-0.67 4.02 -0.34 2.04 0 0 Z " fill="#FAF8E9" transform="translate(148,151)"/>
<path d="M0 0 C1.65 1.65 3.3 3.3 5 5 C4.67 5.99 4.34 6.98 4 8 C2.68 8.33 1.36 8.66 0 9 C0 6.03 0 3.06 0 0 Z " fill="#F8EEDB" transform="translate(108,108)"/>
<path d="M0 0 C3.08669204 3.08669204 3.44855089 3.91927658 4 8 C2.68 8.33 1.36 8.66 0 9 C0 6.03 0 3.06 0 0 Z " fill="#F6E4CE" transform="translate(81,67)"/>
<path d="M0 0 C1.31611677 0.95336021 2.62778961 1.91285774 3.9375 2.875 C4.66839844 3.40867188 5.39929688 3.94234375 6.15234375 4.4921875 C8 6 8 6 9 8 C5.81390075 7.64598897 4.20933322 7.16972964 1.6875 5.125 C0 3 0 3 0 0 Z " fill="#F99409" transform="translate(155,153)"/>
</svg>
